<?xml version="1.0" encoding="utf-8"?>
<!-- Generator: Adobe Illustrator 26.5.0, SVG Export Plug-In . SVG Version: 6.00 Build 0)  -->
<svg version="1.1" id="Layer_1" xmlns="http://www.w3.org/2000/svg" xmlns:xlink="http://www.w3.org/1999/xlink" x="0px" y="0px"
	 viewBox="0 0 682.8 213.4" style="enable-background:new 0 0 682.8 213.4;" xml:space="preserve">
<style type="text/css">
	.st0{fill:#19324A;}
	.st1{fill:#5E9FD6;}
</style>
<g>
	<path class="st0" d="M27.2,156.6c-8.1-3.3-14.6-8.3-19.5-14.8c-4.9-6.5-7.4-14.4-7.7-23.6h36.4c0.5,5.3,2.3,9.4,5.4,12.2
		c3.1,2.8,7.1,4.2,12,4.2c5.1,0,9.1-1.2,12-3.7c2.9-2.5,4.4-5.8,4.4-9.9c0-3.5-1.2-6.3-3.5-8.6c-2.3-2.3-5.2-4.1-8.6-5.6
		c-3.4-1.5-8.2-3.1-14.5-5c-9.1-2.8-16.5-5.6-22.2-8.4C15.7,90.6,10.7,86.5,6.6,81c-4.1-5.5-6.2-12.6-6.2-21.4
		c0-13.1,4.7-23.3,14.2-30.7c9.5-7.4,21.8-11.1,37-11.1c15.5,0,27.9,3.7,37.4,11.1c9.5,7.4,14.5,17.7,15.2,30.9h-37
		c-0.3-4.8-1.9-8.5-4.9-11.1c-3-2.6-7-3.9-11.9-3.9c-4.1,0-7.5,1.1-10,3.4c-2.5,2.3-3.8,5.5-3.8,9.8c0,4.5,2.1,8.1,6.4,10.6
		c4.3,2.5,10.9,5.3,20,8.2c9.1,3.1,16.4,6,22.1,8.8c5.7,2.8,10.6,6.9,14.7,12.2c4.1,5.3,6.2,12.2,6.2,20.6c0,8-2,15.3-6.1,21.8
		c-4.1,6.5-10,11.7-17.7,15.6c-7.7,3.9-16.9,5.8-27.4,5.8C44.5,161.6,35.3,159.9,27.2,156.6z"/>
	<path class="st0" d="M195.2,160.2l-34-46.8v46.8H127v-148h34.2V94L195,48.6h42.2l-46.4,56l46.8,55.6H195.2z"/>
	<path class="st0" d="M299.9,53.1c6.1-3.8,12.7-5.7,19.9-5.7v36.2h-9.4c-8.5,0-14.9,1.8-19.2,5.5c-4.3,3.7-6.4,10.1-6.4,19.3v51.8
		h-34.2V48.6h34.2v20C288.8,62.1,293.9,56.9,299.9,53.1z"/>
	<path class="st0" d="M335.9,74c4.3-8.7,10.2-15.3,17.7-20c7.5-4.7,15.8-7,25-7c7.9,0,14.8,1.6,20.7,4.8c5.9,3.2,10.5,7.4,13.7,12.6
		V48.6h34.2v111.6H413v-15.8c-3.3,5.2-8,9.4-13.9,12.6c-5.9,3.2-12.8,4.8-20.7,4.8c-9.1,0-17.3-2.4-24.8-7.1
		c-7.5-4.7-13.4-11.5-17.7-20.2c-4.3-8.7-6.5-18.8-6.5-30.3C329.4,92.7,331.6,82.7,335.9,74z M405.9,84.2
		c-4.7-4.9-10.5-7.4-17.3-7.4s-12.6,2.4-17.3,7.3c-4.7,4.9-7.1,11.6-7.1,20.1c0,8.5,2.4,15.3,7.1,20.3c4.7,5,10.5,7.5,17.3,7.5
		s12.6-2.5,17.3-7.4c4.7-4.9,7.1-11.7,7.1-20.2C413,95.9,410.7,89.1,405.9,84.2z"/>
	<path class="st0" d="M520,51.8c5.9-3.2,12.7-4.8,20.6-4.8c9.2,0,17.5,2.3,25,7c7.5,4.7,13.4,11.3,17.7,20
		c4.3,8.7,6.5,18.7,6.5,30.2c0,11.5-2.2,21.6-6.5,30.3c-4.3,8.7-10.2,15.5-17.7,20.2c-7.5,4.7-15.8,7.1-25,7.1
		c-7.7,0-14.6-1.6-20.5-4.8c-5.9-3.2-10.6-7.3-13.9-12.4v68.8H472V48.6h34.2v15.8C509.6,59.2,514.2,55,520,51.8z M547.9,84.1
		c-4.7-4.9-10.6-7.3-17.5-7.3c-6.8,0-12.6,2.5-17.3,7.4c-4.7,4.9-7.1,11.7-7.1,20.2c0,8.5,2.4,15.3,7.1,20.2
		c4.7,4.9,10.5,7.4,17.3,7.4s12.6-2.5,17.4-7.5c4.8-5,7.2-11.8,7.2-20.3C555,95.7,552.7,89,547.9,84.1z"/>
	<path class="st0" d="M610.3,31.7c-3.8-3.5-5.7-7.9-5.7-13.1c0-5.3,1.9-9.8,5.7-13.3C614.1,1.8,619,0,625,0c5.9,0,10.7,1.8,14.5,5.3
		c3.8,3.5,5.7,8,5.7,13.3c0,5.2-1.9,9.6-5.7,13.1c-3.8,3.5-8.6,5.3-14.5,5.3C619,37,614.1,35.2,610.3,31.7z M642.1,48.6v111.6h-34.2
		V48.6H642.1z"/>
	<circle id="Ellipse_126_00000182497063400131879480000003685417543690747306_" class="st1" cx="668.6" cy="146.1" r="14.1"/>
</g>
</svg>
