<?xml version="1.0" encoding="utf-8"?>
<!-- Generator: Adobe Illustrator 25.0.0, SVG Export Plug-In . SVG Version: 6.00 Build 0)  -->
<svg version="1.1" id="Laag_1" xmlns="http://www.w3.org/2000/svg" xmlns:xlink="http://www.w3.org/1999/xlink" x="0px" y="0px"
	 viewBox="0 0 2000 2000" style="enable-background:new 0 0 2000 2000;" xml:space="preserve">
<style type="text/css">
	.st0{fill:#183149;}
	.st1{fill:#4FA4F3;}
</style>
<g>
	<path class="st0" d="M565.2,1695.9c-84.6-34.6-152.2-86-202.8-154c-50.7-67.9-77.3-149.8-80.1-245.5H661
		c5.5,54.1,24.3,95.4,56.2,123.8s73.5,42.7,124.8,42.7c52.7,0,94.3-12.1,124.8-36.4s45.8-57.9,45.8-100.9c0-36-12.2-65.9-36.4-89.5
		c-24.3-23.6-54.1-43-89.5-58.2c-35.4-15.3-85.7-32.6-150.8-52c-94.3-29.1-171.3-58.3-230.9-87.4c-59.7-29.1-111-72.1-154-129
		s-64.5-131.1-64.5-222.6c0-135.9,49.2-242.4,147.7-319.4S661,252,819.1,252c160.9,0,290.6,38.5,389,115.5
		c98.5,77,151.2,184.1,158.1,321.4H981.3c-2.8-47.1-20.1-84.3-52-111.3S856.5,537,806.5,537c-43,0-77.7,11.4-104,34.3
		c-26.4,22.9-39.5,55.8-39.5,98.8c0,47.2,22.2,83.9,66.6,110.3c44.4,26.4,113.7,54.8,208,85.3c94.3,31.9,170.9,62.4,229.9,91.5
		c58.9,29.1,109.9,71.5,152.9,126.9c43,55.5,64.5,126.9,64.5,214.3c0,83.2-21.2,158.8-63.5,226.8s-103.7,122.1-184.1,162.3
		c-80.5,40.2-175.5,60.3-285,60.3C745.4,1747.9,649.7,1730.6,565.2,1695.9z"/>
	<circle id="Ellipse_126_1_" class="st1" cx="1570" cy="1599.8" r="147.8"/>
</g>
</svg>
